<?xml version="1.0" encoding="UTF-8"?>
<svg width="128" height="128" version="1.1" xml:space="preserve" xmlns="http://www.w3.org/2000/svg"><path d="m64.73 4.0021c-33.652-0.25091-52.407 21.998-52.864 59.609-0.45733 37.611 17.753 60.136 51.405 60.387 33.652 0.2509 52.407-22 52.865-59.611 0.45731-37.611-17.753-60.134-51.405-60.385zm4.1038 20.992s5.3992-3.9162 11.41-3.4289c6.0109 0.48731 11.226 5.6678 14.24 12.39 1.3831 3.0848 4.2443 6.2126 7.1698 14.047 1.3347 3.5742-2.9887 5.9933-3.5532 9.7156-0.57456 0.26648-1.052 1.3694-1.4597 1.9602-0.94918 1.3753-1.9468 2.8944-3.4177 3.7083-0.42003 0.23243-2.0012 0.42472-2.4147 0.66869-0.036 0.02126-0.0697 0.04419-0.10483 0.06556-0.3792-1.9021-1.5484-3.5796-3.1599-4.8075-1.9626-1.4955-4.5959-2.381-7.4822-2.3885l-13.752-0.75609v0.0022l-14.569-0.79976-0.03938-0.0045c-0.0078-4.47e-4 -0.01611-0.0011-0.02406-0.0022-0.71727-0.07709-1.4242-0.09745-2.1153-0.06557-2.0734 0.09555-3.9976 0.66602-5.5833 1.6193-2.1298 1.2804-3.6722 3.305-3.9444 5.7341-8.95e-4 0.0078-0.0011 0.016-0.0022 0.02406-0.06098-0.01846-0.12288-0.0367-0.18574-0.0546-0.52375-0.14935-2.3431 0.0011-2.8714-0.13549-1.8501-0.47863-3.3449-1.7455-4.7486-2.8845-0.65094-0.52823-1.5405-1.622-2.2879-1.6171-0.39067-3.8746-4.9544-6.3235-3.5882-9.9822 2.9255-7.8341 5.7867-10.962 7.1698-14.047 3.0138-6.722 12.612-12.446 23.474-12.802s11.84 3.8407 11.84 3.8407zm13.463 6.8674c1e-5 1e-6 -3.5007 9.2817-3.5007 11.999 0 2.7175 1.5671 4.919 3.5007 4.919 1.9336 0 3.5008-2.2015 3.5008-4.919s-3.5008-11.999-3.5008-11.999zm-32.593 25.67c0.58071-0.02585 1.1793-0.0067 1.7875 0.0612 2.5877 0.28991 4.8485 0.83678 6.2585 1.6652 1.41 0.82837 2.0022 1.687 1.8181 3.3303-0.16144 1.4409-1.7997 3.5486-4.141 5.0698-2.3413 1.5212-5.2849 2.4667-7.5631 2.2115-2.4329-0.27257-3.8363-1.153-4.6742-2.336-0.83793-1.183-1.1377-2.787-0.93091-4.6327 0.18411-1.6433 1.2123-3.0672 2.8714-4.0645 1.2443-0.74805 2.8315-1.2269 4.5737-1.3046zm30.296 1.628c2.4482-0.0045 4.6466 0.7607 6.1864 1.9339s2.4074 2.7016 2.4103 4.3552c3e-3 1.8572-0.46876 3.4198-1.4313 4.5038-0.96256 1.084-2.4577 1.8029-4.9059 1.8072-2.2924 4e-3 -5.1142-1.2579-7.2747-3.0265-2.1604-1.7687-3.5573-4.0438-3.5598-5.4937-0.0034-1.6536 0.68202-2.443 2.1743-3.1118 1.4923-0.66882 3.7967-0.96358 6.4006-0.96807zm-18.977 0.2076 9.3179 0.50042c-0.55783 0.70353-0.94518 1.5471-1.0904 2.5065-1.1449-0.9603-2.3439-1.5592-3.6341-1.6302-1.2894-0.07093-2.5487 0.3912-3.7914 1.2194-0.0395-0.96402-0.32869-1.8386-0.80199-2.5961zm-31.076 0.9178c0.35442 0.31533 0.75427 0.6492 1.1057 1.0183 0.79601 0.836 2.8189 2.4442 3.7761 3.1402 0.93693 0.68125 1.9944 1.7528 3.2932 1.8269 0.60313 0.03435 1.3642-0.02249 2.0498-0.19448 0.21553 0.98822 0.60175 1.9193 1.191 2.7512 1.2411 1.7522 3.3595 2.9407 6.252 3.2647 3.0472 0.34141 6.3475-0.81285 9.0316-2.5567 0.83118-0.54003 1.6003-1.1423 2.2923-1.7853l0.0022 0.0022c0.01007-0.0113 0.01846-0.01924 0.02842-0.03054 0.51617-0.48256 0.99408-0.98424 1.392-1.5166 0.92674-0.9604 1.7504-1.704 2.4824-2.2246 1.0868-0.77286 1.9108-1.0414 2.6485-1.0008 0.73773 0.04061 1.5306 0.39754 2.5261 1.2849 0.67133 0.59841 1.4104 1.4289 2.2268 2.4868 0.33619 0.57087 0.7522 1.1218 1.2106 1.6564 9e-3 0.01275 0.01734 0.02215 0.02618 0.03491l0.0022-0.0022c0.61716 0.71518 1.3176 1.3977 2.0847 2.0257 2.4767 2.0276 5.6288 3.5344 8.6951 3.5292 2.9105-4e-3 5.1475-0.95115 6.5732-2.5567 1.0017-1.1281 1.5838-2.5242 1.84-4.0318 0.76281 0.17465 1.7085 0.08369 2.3819-0.11144 1.0889-0.31557 1.7598-1.5586 2.4103-2.3994 0.66465-0.85901 2.0397-2.8084 2.537-3.7739 0.0355-0.0687 0.0717-0.13579 0.10931-0.20323 0.45296 4.2654 2.2096 8.644 0.69709 12.563-1.821 4.7184-8.7202 6.0873-10.727 10.73-1.392 17.142-5.277 14.497-10.526 19.831-3.5219 3.5785-7.3487 2.9654-13.557 2.9654-6.2085-1e-5 -10.035 0.61311-13.557-2.9654-5.2493-5.3337-9.1343-2.689-10.526-19.831-2.0071-4.6423-8.9063-6.0112-10.727-10.73-1.5875-4.1132 0.42815-8.7332 0.75609-13.197z" style="fill-rule:evenodd;fill:#84271e"/></svg>
